<svg width="1200" height="900" viewBox="0 0 1200 900" fill="none" xmlns="http://www.w3.org/2000/svg">
  <rect width="1200" height="900" rx="32" fill="#F5F5F5"/>
  <rect x="68" y="70" width="42" height="42" rx="21" fill="#D8ECFF"/>
  <circle cx="89" cy="91" r="10" fill="#6DB7FF"/>
  <path d="M89 81L94 96L79 91L89 81Z" fill="#3E6EFF"/>
  <text x="130" y="100" fill="#1F1F1F" font-family="Arial, sans-serif" font-size="32" font-weight="600">Diagnosticar problemas de desempenho</text>
  <text x="492" y="54" fill="#6B6B6B" font-family="Arial, sans-serif" font-size="30">📱 Celular</text>
  <text x="630" y="54" fill="#377DF2" font-family="Arial, sans-serif" font-size="30">💻 Computador</text>
  <rect x="66" y="136" width="1068" height="684" rx="16" fill="#FFFFFF" stroke="#D4D4D4" stroke-width="2"/>
  <circle cx="370" cy="210" r="28" fill="#FFF4E8" stroke="#F6A32B" stroke-width="6"/>
  <text x="352" y="220" fill="#D16600" font-family="Arial, sans-serif" font-size="28">58</text>
  <circle cx="510" cy="210" r="28" fill="#FFF4E8" stroke="#F6A32B" stroke-width="6"/>
  <text x="492" y="220" fill="#D16600" font-family="Arial, sans-serif" font-size="28">85</text>
  <circle cx="650" cy="210" r="28" fill="#E9F8EE" stroke="#19C15D" stroke-width="6"/>
  <text x="627" y="220" fill="#129442" font-family="Arial, sans-serif" font-size="28">100</text>
  <circle cx="790" cy="210" r="28" fill="#E9F8EE" stroke="#19C15D" stroke-width="6"/>
  <text x="767" y="220" fill="#129442" font-family="Arial, sans-serif" font-size="28">100</text>
  <text x="325" y="278" fill="#303030" font-family="Arial, sans-serif" font-size="26">Desempenho</text>
  <text x="457" y="278" fill="#303030" font-family="Arial, sans-serif" font-size="26">Acessibilidade</text>
  <text x="620" y="278" fill="#303030" font-family="Arial, sans-serif" font-size="26">Práticas</text>
  <text x="623" y="315" fill="#303030" font-family="Arial, sans-serif" font-size="26">recomendadas</text>
  <text x="774" y="278" fill="#303030" font-family="Arial, sans-serif" font-size="26">SEO</text>
  <line x1="78" y1="340" x2="1120" y2="340" stroke="#D9D9D9" stroke-width="2"/>
  <circle cx="300" cy="558" r="100" fill="#F3E9DB"/>
  <path d="M300 458A100 100 0 0 1 378 624" stroke="#F6A32B" stroke-width="12" stroke-linecap="round"/>
  <text x="272" y="571" fill="#DD8A11" font-family="Arial, sans-serif" font-size="54">58</text>
  <text x="200" y="705" fill="#222222" font-family="Arial, sans-serif" font-size="42">Desempenho</text>
  <text x="110" y="770" fill="#666666" font-family="Arial, sans-serif" font-size="24">Os valores são estimados e podem variar.</text>
  <rect x="670" y="438" width="320" height="258" rx="6" fill="#FAFAFA" stroke="#D2D2D2" stroke-width="2"/>
  <rect x="690" y="468" width="280" height="30" fill="#FFFFFF"/>
  <text x="778" y="491" fill="#111111" font-family="Arial, sans-serif" font-size="20" font-weight="700">BADAUÊ</text>
  <rect x="690" y="510" width="130" height="84" rx="8" fill="#4B86B9"/>
  <rect x="830" y="510" width="140" height="84" rx="8" fill="#223341"/>
  <rect x="690" y="616" width="280" height="58" rx="8" fill="#EFEFEF"/>
  <circle cx="948" cy="650" r="20" fill="#2BD664"/>
  <text x="1030" y="790" fill="#7A7A7A" font-family="Arial, sans-serif" font-size="18">Abrir visualização</text>
</svg>
